<?xml version="1.0" encoding="UTF-8"?><svg id="uuid-e4d3a61a-506f-4fd3-95ca-aedf422d7f08" xmlns="http://www.w3.org/2000/svg" width="256.13" height="40" viewBox="0 0 256.13 40"><path d="M2.68,30c-.25-.43-.41-.91-.48-1.41-.07-.5-.03-1,.1-1.48,.13-.48,.35-.94,.66-1.33,.3-.4,.69-.73,1.12-.98,.88-.51,1.92-.64,2.89-.38,.98,.26,1.81,.9,2.32,1.78-1.08-1.88-1.66-4.02-1.65-6.19,0-2.17,.57-4.31,1.66-6.19,1.08-1.88,2.65-3.45,4.53-4.53,1.88-1.09,4.01-1.66,6.18-1.67,.99-.03,1.92-.45,2.61-1.16,.69-.71,1.07-1.66,1.07-2.64s-.38-1.93-1.07-2.64C21.92,.45,20.98,.03,20,0c-3.51,0-6.96,.93-10,2.68-3.04,1.76-5.56,4.28-7.32,7.32C.92,13.04,0,16.49,0,20c0,3.51,.92,6.96,2.68,10Z" fill="#e73"/><path d="M34.14,5.86c-1.85-1.86-4.06-3.34-6.48-4.34C25.23,.51,22.62,0,20,0c.99,.03,1.92,.45,2.61,1.16,.69,.71,1.07,1.66,1.07,2.64s-.38,1.93-1.07,2.64c-.69,.71-1.62,1.13-2.61,1.16,2.17,0,4.31,.57,6.19,1.66,1.88,1.09,3.45,2.65,4.53,4.53,1.09,1.88,1.66,4.02,1.66,6.19,0,2.17-.57,4.31-1.65,6.19-.25,.43-.41,.91-.48,1.41-.07,.5-.03,1,.1,1.48s.35,.94,.66,1.33c.31,.4,.69,.73,1.12,.98,.43,.25,.91,.41,1.41,.48,.5,.07,1,.03,1.48-.1,.48-.13,.94-.35,1.33-.66,.4-.3,.73-.69,.98-1.12,2.2-3.81,3.08-8.25,2.51-12.61-.58-4.37-2.57-8.42-5.69-11.53h-.01Z" fill="#34af84"/><path d="M34.02,31.9c-.67,0-1.33-.17-1.91-.51-.58-.33-1.06-.81-1.4-1.39-.33-.58-.51-1.24-.51-1.91,0-.67,.18-1.33,.51-1.91-1.09,1.88-2.65,3.45-4.53,4.54-1.88,1.09-4.02,1.66-6.2,1.66s-4.31-.57-6.2-1.66c-1.88-1.09-3.45-2.65-4.53-4.54-.25-.43-.58-.81-.98-1.12-.4-.3-.85-.53-1.33-.66-.48-.13-.99-.16-1.48-.1-.5,.07-.98,.23-1.41,.48-.43,.25-.81,.58-1.12,.98-.3,.4-.53,.85-.66,1.33-.26,.98-.13,2.02,.38,2.89,1.76,3.04,4.28,5.56,7.32,7.32,3.04,1.75,6.49,2.68,10,2.68s6.96-.92,10-2.68c3.04-1.75,5.57-4.28,7.32-7.32-.33,.57-.81,1.05-1.38,1.39-.57,.33-1.22,.51-1.89,.52Z" fill="#213360"/><path d="M63.93,13.56c-1.11-.54-2.33-.81-3.57-.77-1.23,.04-2.44,.38-3.51,.99-1.13,.65-2.06,1.6-2.69,2.74-.65,1.16-.99,2.48-.99,3.81s.34,2.64,.99,3.81c.64,1.14,1.58,2.09,2.71,2.74,1.15,.67,2.45,1.01,3.77,1.01,1.11,0,2.2-.25,3.2-.7,1.06-.46,2.02-1.12,2.83-1.94l2.52,2.8c-1.17,1.19-2.55,2.15-4.08,2.83-1.48,.68-3.09,1.03-4.72,1.04-2.07,.02-4.1-.51-5.9-1.53-1.75-.99-3.2-2.42-4.21-4.16-1.02-1.77-1.55-3.78-1.53-5.82-.02-2.04,.52-4.05,1.56-5.8,1.02-1.72,2.49-3.14,4.25-4.11,1.63-.9,3.44-1.41,5.29-1.51,1.86-.1,3.71,.22,5.42,.94,1.48,.6,2.81,1.5,3.92,2.65l-2.49,3.12c-.77-.9-1.72-1.62-2.79-2.12Z" fill="#213360"/><path d="M72.95,9.25h4.27V27.71h9.63v3.86h-13.9V9.25Z" fill="#213360"/><path d="M106.81,10.47c1.78,.96,3.27,2.39,4.31,4.14,1.03,1.75,1.57,3.74,1.55,5.77,.02,2.05-.52,4.06-1.56,5.82-1.03,1.75-2.51,3.18-4.29,4.16-1.86,1-3.93,1.53-6.04,1.53s-4.18-.53-6.04-1.53c-1.78-.98-3.26-2.42-4.29-4.16-1.04-1.76-1.58-3.77-1.56-5.82-.02-2.03,.52-4.02,1.55-5.77,1.03-1.75,2.52-3.18,4.3-4.14,1.86-.98,3.93-1.5,6.04-1.5s4.18,.51,6.04,1.5Zm-9.77,3.33c-1.75,1.02-3.02,2.69-3.54,4.65-.52,1.96-.24,4.04,.78,5.79,.67,1.15,1.63,2.1,2.77,2.77,1.14,.68,2.45,1.03,3.78,1.02,1.31,0,2.6-.35,3.73-1.02,1.14-.67,2.08-1.63,2.73-2.77,.67-1.17,1.02-2.5,1-3.86,.02-1.36-.33-2.69-1-3.86-.65-1.14-1.59-2.09-2.73-2.74-1.13-.66-2.42-1.01-3.73-1.01-1.33,0-2.64,.35-3.79,1.03Z" fill="#213360"/><path d="M122.17,26.53c.53,.51,1.16,.9,1.85,1.16,.69,.26,1.43,.37,2.16,.33,.73,.04,1.46-.07,2.14-.33,.68-.26,1.3-.65,1.83-1.16,.96-1,1.45-2.38,1.45-4.14V9.25h4.29v13.14c.04,1.76-.36,3.5-1.18,5.05-.76,1.41-1.94,2.57-3.36,3.3-1.6,.8-3.36,1.19-5.15,1.15-1.8,.04-3.58-.35-5.19-1.15-1.44-.73-2.62-1.88-3.39-3.3-.82-1.56-1.22-3.3-1.18-5.05V9.25h4.27v13.14c-.03,1.76,.46,3.14,1.46,4.14Z" fill="#213360"/><path d="M156.37,10.67c1.72,.91,3.16,2.28,4.14,3.95,1.01,1.75,1.53,3.75,1.5,5.77,.03,2.02-.49,4.01-1.51,5.75-1,1.68-2.45,3.06-4.19,3.97-1.88,.97-3.97,1.46-6.09,1.42h-9.14V9.25h9.28c2.09-.04,4.15,.45,6.01,1.42Zm-2.22,16.19c1.08-.61,1.97-1.52,2.57-2.61,.64-1.17,.96-2.48,.94-3.81,.02-1.34-.3-2.66-.94-3.84-.61-1.11-1.52-2.03-2.63-2.65-1.14-.64-2.44-.96-3.75-.94h-4.97v14.79h5.1c1.29,.02,2.56-.31,3.68-.94Z" fill="#213360"/><path d="M176.36,13.37c-1.03-.35-2.1-.55-3.19-.58-.85-.04-1.68,.16-2.42,.58-.28,.16-.5,.4-.66,.68-.16,.28-.23,.6-.22,.92,0,.29,.04,.57,.15,.84,.11,.27,.27,.51,.47,.71,.45,.44,.98,.78,1.56,1.02,.84,.34,1.7,.63,2.57,.87,1.28,.36,2.52,.81,3.74,1.34,.96,.45,1.8,1.12,2.45,1.96,.72,1,1.08,2.21,1.02,3.44,.03,1.28-.36,2.53-1.11,3.56-.77,1.04-1.82,1.84-3.03,2.31-1.41,.55-2.91,.82-4.42,.8-1.75,0-3.48-.33-5.1-.97-1.59-.61-3.05-1.49-4.34-2.6l1.78-3.63c1.11,1.03,2.38,1.86,3.77,2.45,1.23,.56,2.57,.86,3.92,.89,.98,.05,1.96-.18,2.8-.68,.28-.18,.51-.42,.68-.7,.17-.28,.28-.6,.32-.93,.04-.33,0-.66-.1-.98-.1-.31-.28-.6-.51-.84-.45-.44-.99-.78-1.58-1.01-.63-.25-1.5-.54-2.61-.86-1.26-.36-2.49-.79-3.7-1.31-.96-.43-1.81-1.09-2.45-1.93-.72-.98-1.08-2.18-1.02-3.39-.03-1.21,.34-2.4,1.04-3.39,.74-1.01,1.76-1.79,2.93-2.25,1.39-.56,2.88-.83,4.38-.8,1.45,0,2.9,.22,4.28,.64,1.33,.39,2.61,.97,3.77,1.72l-1.72,3.73c-1.09-.68-2.26-1.22-3.48-1.62Z" fill="#213360"/><path d="M191.26,26.53c.53,.51,1.16,.9,1.85,1.16,.69,.26,1.43,.37,2.16,.33,.73,.04,1.46-.07,2.14-.33,.68-.26,1.31-.65,1.83-1.16,.97-1,1.45-2.38,1.45-4.14V9.25h4.27v13.14c.04,1.76-.36,3.5-1.18,5.05-.76,1.41-1.94,2.57-3.36,3.3-1.6,.8-3.36,1.19-5.15,1.15-1.8,.04-3.58-.35-5.19-1.15-1.44-.73-2.62-1.88-3.39-3.3-.82-1.56-1.22-3.3-1.18-5.05V9.25h4.27v13.14c-.01,1.76,.48,3.14,1.48,4.14Z" fill="#213360"/><path d="M210.19,9.25h4.27V31.57h-4.27V9.25Z" fill="#213360"/><path d="M217.83,9.25h18.2v3.77h-6.95V31.57h-4.3V13.05h-6.95v-3.79Z" fill="#213360"/><path d="M239.42,9.25h16.33v3.73h-12.08v5.52h10.85v3.73h-10.85v5.62h12.46v3.73h-16.71V9.25Z" fill="#213360"/></svg>